<svg xmlns="http://www.w3.org/2000/svg" xmlns:xlink="http://www.w3.org/1999/xlink" viewBox="0 0 160 160"><defs><path id="a" d="M16 0h4v112h-4V4H2a2 2 0 1 1 0-4h14z"/><path id="b" d="M16 112h48v4H16z"/><path id="c" d="M24 60h40v48H24z"/><path id="d" d="M40 60h8v12h-8z"/><path id="e" d="M24 28h32v33H24z"/><circle id="f" cx="12" cy="12" r="12"/><circle id="g" cx="12" cy="12" r="8"/><circle id="h" cx="12" cy="12" r="4"/><path id="i" d="M36 28h8v12h-8z"/><path id="j" d="M24 16c0-6.627-5.373-12-12-12S0 9.373 0 16h24z"/><path id="k" d="M14 2a2 2 0 1 0-4 0h4z"/><path id="l" d="M2 17h20a2 2 0 0 1 2 2v2H0v-2a2 2 0 0 1 2-2z"/><path id="m" d="M4 32.818v-18.14A8.003 8.003 0 0 1 6 0v4.748a2 2 0 1 0 4 0V0a8.003 8.003 0 0 1 2 14.678v18.14a8.003 8.003 0 0 1-2 14.678v-4.748a2 2 0 1 0-4 0v4.748a8.003 8.003 0 0 1-2-14.678z"/><rect id="n" width="32" height="40" y="5" rx="2"/><path id="o" d="M4 5h24v32H4z"/><rect id="p" width="40" height="5" y="75" rx="2.5"/><path id="q" d="M16 60.504V56h8v4.504C30.9 62.28 36 68.544 36 76H4c0-7.455 5.1-13.72 12-15.496z"/><path id="r" d="M20 0a2 2 0 0 1 2 2v55h-4V2a2 2 0 0 1 2-2z"/><rect id="s" width="28" height="16" rx="2"/></defs><g fill="none" fill-rule="evenodd"><ellipse cx="80" cy="130" fill="#B3BEF1" opacity=".5" rx="70" ry="15"/><g transform="matrix(-1 0 0 1 136 16)"><use fill="#F3F4FA" xlink:href="#a"/><path stroke="#010A37" d="M16.5 111.5h3V.5H2a1.5 1.5 0 0 0 0 3h14.5v108z"/></g><g transform="matrix(-1 0 0 1 136 16)"><use fill="#F3F4FA" xlink:href="#b"/><path stroke="#010A37" d="M16.5 112.5h47v3h-47z"/></g><g transform="matrix(-1 0 0 1 136 16)"><use fill="#CD9157" xlink:href="#c"/><path stroke="#010A37" d="M24.5 60.5h39v47h-39z"/></g><g transform="matrix(-1 0 0 1 136 16)"><use fill="#FDD991" xlink:href="#d"/><path stroke="#010A37" d="M40.5 60.5h7v11h-7z"/></g><g transform="matrix(-1 0 0 1 136 16)"><use fill="#FFE6B3" xlink:href="#e"/><path stroke="#010A37" d="M24.5 28.5h31v32h-31z"/></g><g transform="matrix(-1 0 0 1 128 112)"><use fill="#4A4A4A" xlink:href="#f"/><circle cx="12" cy="12" r="11.5" stroke="#010A37"/></g><g transform="matrix(-1 0 0 1 128 112)"><use fill="#D8D8D8" xlink:href="#g"/><circle cx="12" cy="12" r="7.5" stroke="#010A37"/></g><g transform="matrix(-1 0 0 1 128 112)"><use fill="#4A4A4A" xlink:href="#h"/><circle cx="12" cy="12" r="3.5" stroke="#010A37"/></g><g transform="matrix(-1 0 0 1 136 16)"><use fill="#CD9157" xlink:href="#i"/><path stroke="#010A37" d="M36.5 28.5h7v11h-7z"/></g><g transform="translate(120 115)"><use fill="#BAECEA" xlink:href="#j"/><path stroke="#010A37" d="M23.49 15.5c-.262-6.12-5.306-11-11.49-11S.772 9.38.51 15.5h22.98z"/></g><g transform="translate(120 115)"><use fill="#53C1BD" xlink:href="#k"/><path stroke="#010A37" d="M14.5 2.5h-5V2a2.5 2.5 0 1 1 5 0v.5z"/></g><path stroke="#010A37" d="M132 117v3"/><g transform="translate(120 115)"><use fill="#53C1BD" xlink:href="#l"/><path stroke="#010A37" d="M.5 20.5h23V19a1.5 1.5 0 0 0-1.5-1.5H2A1.5 1.5 0 0 0 .5 19v1.5z"/></g><g transform="translate(64 88)"><use fill="#F3F4FA" xlink:href="#m"/><path stroke="#010A37" d="M5.5 46.822v-4.074a2.5 2.5 0 0 1 5 0v4.074a7.505 7.505 0 0 0 1.25-13.571l-.25-.144V14.389l.25-.144A7.505 7.505 0 0 0 10.5.675v4.073a2.5 2.5 0 0 1-5 0V.674a7.505 7.505 0 0 0-1.25 13.57l.25.145v18.718l-.25.144a7.505 7.505 0 0 0 1.25 13.57z"/><rect width="2" height="20" x="7" y="14" fill="#FFF" stroke="#010A37" rx="1"/></g><g transform="translate(96 91)"><use fill="#FDD991" xlink:href="#n"/><rect width="31" height="39" x=".5" y="5.5" stroke="#010A37" rx="2"/></g><g transform="translate(96 91)"><use fill="#FFF" xlink:href="#o"/><path stroke="#010A37" d="M4.5 5.5h23v31h-23z"/></g><path fill="#FB8B8A" stroke="#000" d="M108 95a4 4 0 1 1 8 0h4v4h-16v-4h4zm4 2a2 2 0 1 0 0-4 2 2 0 0 0 0 4z"/><g transform="translate(24 56)"><use fill="#A65C5B" xlink:href="#p"/><rect width="39" height="4" x=".5" y="75.5" stroke="#010A37" rx="2"/></g><g transform="translate(24 56)"><use fill="#FB8B8A" xlink:href="#q"/><path stroke="#010A37" d="M4.508 75.5h30.984a15.506 15.506 0 0 0-11.617-14.512l-.375-.096V56.5h-7v4.392l-.375.096A15.506 15.506 0 0 0 4.508 75.5z"/></g><g transform="translate(24 56)"><use fill="#CD9157" xlink:href="#r"/><path stroke="#010A37" d="M18.5 56.5h3V2a1.5 1.5 0 0 0-3 0v54.5z"/></g><g transform="translate(88 120)"><use fill="#B3BEF1" xlink:href="#s"/><rect width="27" height="15" x=".5" y=".5" stroke="#010A37" rx="2"/></g><path fill="#010A37" d="M89 124h26v2H89zm18 4h6v2h-6z"/></g></svg>